# xmcd CD database file
#
# Track frame offsets:
#	150
#	18188
#	41999
#	85090
#	114502
#	154199
#	173693
#	235060
#	286421
#	333024
#
# Disc length: 4676 seconds
#
# Revision: 2
# Processed by: cddbd v1.5.1PL2 Copyright (c) Steve Scherf et al.
# Submitted via: CDex 1.70beta2
#
DISCID=7612420a
DTITLE=Dr. Knock - Dr. Knock
DYEAR=2003
DGENRE=Jazz
TTITLE0=Drth
TTITLE1=Sans Relâche, Jamais Tranquille-Part 1
TTITLE2=Sans Relâche, Jamais Tranquille-Part 2
TTITLE3=Stravink Sky Or Piszt-Part 1
TTITLE4=Stravink Sky Or Piszt-Part 2
TTITLE5=Stravink Sky Or Piszt-Part 3
TTITLE6=Guernica
TTITLE7=Mr.Tom
TTITLE8=Étrange Toubillon-Part 1
TTITLE9=Étrange Toubillon-Part 2
EXTD=YEAR: 2003
EXTT0=
EXTT1=
EXTT2=
EXTT3=
EXTT4=
EXTT5=
EXTT6=
EXTT7=
EXTT8=
EXTT9=
PLAYORDER=
